<mxfile host="app.diagrams.net" agent="Mozilla/5.0 (Windows NT 10.0; Win64; x64) AppleWebKit/537.36 (KHTML, like Gecko) Chrome/138.0.0.0 Safari/537.36" version="28.0.7">
  <diagram name="Page-1" id="gamRS6MLA4fs2B-uqD5Q">
    <mxGraphModel grid="1" page="1" gridSize="10" guides="1" tooltips="1" connect="1" arrows="1" fold="1" pageScale="1" pageWidth="850" pageHeight="1100" math="0" shadow="0">
      <root>
        <mxCell id="0" />
        <mxCell id="1" parent="0" />
        <mxCell id="qD9gXsYjsShy9WRek7qx-5" style="edgeStyle=orthogonalEdgeStyle;rounded=0;orthogonalLoop=1;jettySize=auto;html=1;exitX=0.5;exitY=1;exitDx=0;exitDy=0;entryX=0.5;entryY=0;entryDx=0;entryDy=0;" edge="1" parent="1" source="sVo8eWBov2D_V9g_eI1e-1" target="qD9gXsYjsShy9WRek7qx-1">
          <mxGeometry relative="1" as="geometry" />
        </mxCell>
        <mxCell id="sVo8eWBov2D_V9g_eI1e-1" value="Inicio" style="rounded=1;whiteSpace=wrap;html=1;" vertex="1" parent="1">
          <mxGeometry x="118" y="83" width="80" height="30" as="geometry" />
        </mxCell>
        <mxCell id="sVo8eWBov2D_V9g_eI1e-14" value="&lt;font style=&quot;font-size: 20px;&quot;&gt;&lt;b&gt;Número mayor, menor o igual a cero&lt;/b&gt;&lt;/font&gt;" style="text;html=1;align=center;verticalAlign=middle;whiteSpace=wrap;rounded=0;" vertex="1" parent="1">
          <mxGeometry x="40" y="20" width="660" height="30" as="geometry" />
        </mxCell>
        <mxCell id="I5g4T-FfKX0s-sWPSXJS-8" style="edgeStyle=orthogonalEdgeStyle;rounded=0;orthogonalLoop=1;jettySize=auto;html=1;exitX=0.5;exitY=1;exitDx=0;exitDy=0;entryX=0.5;entryY=0;entryDx=0;entryDy=0;" edge="1" parent="1" source="qD9gXsYjsShy9WRek7qx-1" target="VzXSWm3fVeeelkvV1c6X-2">
          <mxGeometry relative="1" as="geometry">
            <mxPoint x="157" y="215" as="targetPoint" />
          </mxGeometry>
        </mxCell>
        <mxCell id="qD9gXsYjsShy9WRek7qx-1" value="Leer número" style="rounded=0;whiteSpace=wrap;html=1;" vertex="1" parent="1">
          <mxGeometry x="117" y="148" width="80" height="40" as="geometry" />
        </mxCell>
        <mxCell id="fhB60b2QltupWCeUgBXA-5" value="Fin" style="rounded=1;whiteSpace=wrap;html=1;" vertex="1" parent="1">
          <mxGeometry x="497" y="613" width="80" height="30" as="geometry" />
        </mxCell>
        <mxCell id="VzXSWm3fVeeelkvV1c6X-8" style="edgeStyle=orthogonalEdgeStyle;rounded=0;orthogonalLoop=1;jettySize=auto;html=1;exitX=0.5;exitY=1;exitDx=0;exitDy=0;entryX=0.5;entryY=0;entryDx=0;entryDy=0;" edge="1" parent="1" source="VzXSWm3fVeeelkvV1c6X-2" target="VzXSWm3fVeeelkvV1c6X-3">
          <mxGeometry relative="1" as="geometry" />
        </mxCell>
        <mxCell id="VzXSWm3fVeeelkvV1c6X-10" style="edgeStyle=orthogonalEdgeStyle;rounded=0;orthogonalLoop=1;jettySize=auto;html=1;exitX=1;exitY=0.5;exitDx=0;exitDy=0;entryX=0;entryY=0.5;entryDx=0;entryDy=0;" edge="1" parent="1" source="VzXSWm3fVeeelkvV1c6X-2" target="VzXSWm3fVeeelkvV1c6X-5">
          <mxGeometry relative="1" as="geometry" />
        </mxCell>
        <mxCell id="VzXSWm3fVeeelkvV1c6X-2" value="¿número &amp;gt;0?" style="rhombus;whiteSpace=wrap;html=1;" vertex="1" parent="1">
          <mxGeometry x="97" y="223" width="120" height="80" as="geometry" />
        </mxCell>
        <mxCell id="VzXSWm3fVeeelkvV1c6X-11" style="edgeStyle=orthogonalEdgeStyle;rounded=0;orthogonalLoop=1;jettySize=auto;html=1;exitX=1;exitY=0.5;exitDx=0;exitDy=0;entryX=0;entryY=0.5;entryDx=0;entryDy=0;" edge="1" parent="1" source="VzXSWm3fVeeelkvV1c6X-3" target="VzXSWm3fVeeelkvV1c6X-6">
          <mxGeometry relative="1" as="geometry" />
        </mxCell>
        <mxCell id="VzXSWm3fVeeelkvV1c6X-22" style="edgeStyle=orthogonalEdgeStyle;rounded=0;orthogonalLoop=1;jettySize=auto;html=1;exitX=0.5;exitY=1;exitDx=0;exitDy=0;entryX=0.5;entryY=0;entryDx=0;entryDy=0;" edge="1" parent="1" source="VzXSWm3fVeeelkvV1c6X-3" target="VzXSWm3fVeeelkvV1c6X-4">
          <mxGeometry relative="1" as="geometry" />
        </mxCell>
        <mxCell id="VzXSWm3fVeeelkvV1c6X-3" value="¿número = 0?" style="rhombus;whiteSpace=wrap;html=1;" vertex="1" parent="1">
          <mxGeometry x="97" y="353" width="120" height="77" as="geometry" />
        </mxCell>
        <mxCell id="VzXSWm3fVeeelkvV1c6X-12" style="edgeStyle=orthogonalEdgeStyle;rounded=0;orthogonalLoop=1;jettySize=auto;html=1;exitX=1;exitY=0.5;exitDx=0;exitDy=0;entryX=0;entryY=0.5;entryDx=0;entryDy=0;" edge="1" parent="1" source="VzXSWm3fVeeelkvV1c6X-4" target="VzXSWm3fVeeelkvV1c6X-7">
          <mxGeometry relative="1" as="geometry" />
        </mxCell>
        <mxCell id="VzXSWm3fVeeelkvV1c6X-4" value="¿número &amp;lt; 0?" style="rhombus;whiteSpace=wrap;html=1;" vertex="1" parent="1">
          <mxGeometry x="97" y="483" width="120" height="80" as="geometry" />
        </mxCell>
        <mxCell id="VzXSWm3fVeeelkvV1c6X-13" style="edgeStyle=orthogonalEdgeStyle;rounded=0;orthogonalLoop=1;jettySize=auto;html=1;exitX=1;exitY=0.5;exitDx=0;exitDy=0;entryX=0.5;entryY=0;entryDx=0;entryDy=0;" edge="1" parent="1" source="VzXSWm3fVeeelkvV1c6X-5" target="fhB60b2QltupWCeUgBXA-5">
          <mxGeometry relative="1" as="geometry" />
        </mxCell>
        <mxCell id="VzXSWm3fVeeelkvV1c6X-5" value="&lt;span style=&quot;text-align: left;&quot;&gt;Escribir &quot;Mayor que cero&quot;&lt;/span&gt;" style="rounded=0;whiteSpace=wrap;html=1;" vertex="1" parent="1">
          <mxGeometry x="293" y="243" width="170" height="40" as="geometry" />
        </mxCell>
        <mxCell id="VzXSWm3fVeeelkvV1c6X-14" style="edgeStyle=orthogonalEdgeStyle;rounded=0;orthogonalLoop=1;jettySize=auto;html=1;exitX=1;exitY=0.5;exitDx=0;exitDy=0;" edge="1" parent="1" source="VzXSWm3fVeeelkvV1c6X-6">
          <mxGeometry relative="1" as="geometry">
            <mxPoint x="537" y="613" as="targetPoint" />
          </mxGeometry>
        </mxCell>
        <mxCell id="VzXSWm3fVeeelkvV1c6X-6" value="&lt;span style=&quot;text-align: left;&quot;&gt;Escribir &quot;Es cero&quot;&lt;/span&gt;" style="rounded=0;whiteSpace=wrap;html=1;" vertex="1" parent="1">
          <mxGeometry x="294" y="372" width="170" height="40" as="geometry" />
        </mxCell>
        <mxCell id="VzXSWm3fVeeelkvV1c6X-15" style="edgeStyle=orthogonalEdgeStyle;rounded=0;orthogonalLoop=1;jettySize=auto;html=1;exitX=1;exitY=0.5;exitDx=0;exitDy=0;" edge="1" parent="1" source="VzXSWm3fVeeelkvV1c6X-7">
          <mxGeometry relative="1" as="geometry">
            <mxPoint x="537" y="613" as="targetPoint" />
          </mxGeometry>
        </mxCell>
        <mxCell id="VzXSWm3fVeeelkvV1c6X-7" value="&lt;span style=&quot;text-align: left;&quot;&gt;Escribir &quot;Menor que 0&quot;&lt;/span&gt;" style="rounded=0;whiteSpace=wrap;html=1;" vertex="1" parent="1">
          <mxGeometry x="292" y="503" width="170" height="40" as="geometry" />
        </mxCell>
        <mxCell id="VzXSWm3fVeeelkvV1c6X-16" value="Si" style="text;html=1;align=center;verticalAlign=middle;resizable=0;points=[];autosize=1;strokeColor=none;fillColor=none;" vertex="1" parent="1">
          <mxGeometry x="205" y="238" width="30" height="30" as="geometry" />
        </mxCell>
        <mxCell id="VzXSWm3fVeeelkvV1c6X-17" value="Si" style="text;html=1;align=center;verticalAlign=middle;resizable=0;points=[];autosize=1;strokeColor=none;fillColor=none;" vertex="1" parent="1">
          <mxGeometry x="210" y="360" width="30" height="30" as="geometry" />
        </mxCell>
        <mxCell id="VzXSWm3fVeeelkvV1c6X-18" value="Si" style="text;html=1;align=center;verticalAlign=middle;resizable=0;points=[];autosize=1;strokeColor=none;fillColor=none;" vertex="1" parent="1">
          <mxGeometry x="210" y="490" width="30" height="30" as="geometry" />
        </mxCell>
        <mxCell id="VzXSWm3fVeeelkvV1c6X-21" value="No" style="text;html=1;align=center;verticalAlign=middle;resizable=0;points=[];autosize=1;strokeColor=none;fillColor=none;" vertex="1" parent="1">
          <mxGeometry x="150" y="303" width="40" height="30" as="geometry" />
        </mxCell>
        <mxCell id="VzXSWm3fVeeelkvV1c6X-23" value="No" style="text;html=1;align=center;verticalAlign=middle;resizable=0;points=[];autosize=1;strokeColor=none;fillColor=none;" vertex="1" parent="1">
          <mxGeometry x="157" y="430" width="40" height="30" as="geometry" />
        </mxCell>
      </root>
    </mxGraphModel>
  </diagram>
</mxfile>
